# xmcd
#
# Track frame offsets:
#	150
#	15486
#	32007
#	48166
#	64491
#	79203
#	97199
#	112820
#	126487
#	142655
#	158658
#	175603
#	188025
#	204090
#	217689
#	232512
#	252947
#	269080
#	284571
#	297800
#	310398
#
# Disc length: 4357 seconds
#
# Revision: 0
# Processed by: cddbd v1.5.2PL0 Copyright (c) Steve Scherf et al.
# Submitted via: EZCDAudioConverter 3.1.0.1
#
DISCID=1f110315
DTITLE=Nu Country Traxx Volume 208 US
DYEAR=2016
DGENRE=country
TTITLE0=Toby Keith - A Few More Cowboys
TTITLE1=Jason Aldean - A Little More Summertime
TTITLE2=Tim McGraw - How I'll Always Be
TTITLE3=Lauren Alaina - Road Less Traveled
TTITLE4=Dustin Lynch - Seein' Red
TTITLE5=Jana Kramer - Circles
TTITLE6=Trace Adkins - Lit
TTITLE7=Eric Paslay - Angels In This Town
TTITLE8=Trent Harmon - There's A Girl
TTITLE9=Darius Rucker - If I Told You
TTITLE10=RaeLynn - Love Triangle
TTITLE11=Kane Brown - Thunder In The Rain
TTITLE12=Lucas Hoge - Boom Boom
TTITLE13=Dee Jay Silver ft. Austin Webb - Just Got Paid
TTITLE14=Stephanie Quayle - Drinking With Dolly
TTITLE15=Earl Dibbles Jr. - 'Merica
TTITLE16=Randy Houser - Chasing Down A Good Time
TTITLE17=Lonestar - Never Enders
TTITLE18=Steven Tyler - We're All Somebody From Somewhere
TTITLE19=Ryan Follese - Float Your Boat
TTITLE20=Chase Rice - Everybody We Know Does
EXTD=
EXTT0=
EXTT1=
EXTT2=
EXTT3=
EXTT4=
EXTT5=
EXTT6=
EXTT7=
EXTT8=
EXTT9=
EXTT10=
EXTT11=
EXTT12=
EXTT13=
EXTT14=
EXTT15=
EXTT16=
EXTT17=
EXTT18=
EXTT19=
EXTT20=
PLAYORDER=
